# xmcd
#
# Track frame offsets:
#  150
#  35782
#  51830
#  78377
#  105222
#  133870
#  158842
#  174438
#
# Disc length: 2661 seconds
#
# Revision: 0
# Processed by: cddbd v1.5.2PL0 Copyright (c) Steve Scherf et al.
# Submitted via: AltoMP3_Maker 3.0
#
DISCID=600a6308
DTITLE=Keef Hartley Band - Haflbreed
DYEAR=1900
DGENRE=
TTITLE0=Sacred
TTITLE1=Born to die
TTITLE2=Sinnin' for you
TTITLE3=Leavin' trunk
TTITLE4=Just to cry
TTITLE5=Too much thinking
TTITLE6=Leave it 'til the morning
TTITLE7=Too much to take
EXTD=
EXTT0=
EXTT1=
EXTT2=
EXTT3=
EXTT4=
EXTT5=
EXTT6=
EXTT7=
PLAYORDER=
